<svg xmlns="http://www.w3.org/2000/svg" xmlns:xlink="http://www.w3.org/1999/xlink" xmlns:lucid="lucid" width="1451.3" height="1115.6"><g transform="translate(-158.875 -12)" lucid:page-tab-id="0_0"><path d="M700 32h240v60H700z" fill="none"/><use xlink:href="#a" transform="matrix(1,0,0,1,700,32) translate(73.125 33.6)"/><path d="M799.26 380h-54.52c-2.63 0-4.74-2.16-4.74-4.8v-70.4c0-2.64 2.1-4.8 4.74-4.8h54.52c2.63 0 4.74 2.16 4.74 4.8v70.4c0 2.64-2.1 4.8-4.74 4.8zm-54.52-76.56c-.77 0-1.35.56-1.35 1.36v70.4c0 .8.63 1.36 1.34 1.36h54.52c.77 0 1.35-.56 1.35-1.36v-70.4c0-.8-.63-1.36-1.34-1.36z" stroke="#fff" stroke-opacity="0" fill="#0c7cba"/><path d="M757.68 351.27c-.44 0-.8-.14-1.1-.4l-3.15-2.7c-.38-.33-.6-.78-.6-1.3v-18.16c-6.1-2.68-8.87-9.8-6.2-15.88 2.68-6.12 9.8-8.86 15.9-6.2 6.1 2.7 8.86 9.8 6.2 15.88-1.3 2.88-3.3 4.93-6.2 6.2v1.3l2.2 2.18c.64.7.64 1.74 0 2.42l-2.2 2.2v.4l2.2 2.2c.64.64.64 1.73 0 2.37l-2.2 2.2v2c0 .4-.13.82-.42 1.14l-3.15 3.57c-.33.42-.77.6-1.27.6zm-1.45-5.12l1.28 1.1 1.62-1.83v-2.14c0-.46.17-.87.5-1.2l1.48-1.5-1.47-1.5c-.34-.32-.5-.73-.5-1.2v-1.77c0-.5.16-.86.5-1.22l1.47-1.46-1.47-1.5c-.34-.33-.5-.74-.5-1.2v-3.2c0-.77.45-1.4 1.17-1.64 2.78-.87 4.73-2.83 5.62-5.6 1.45-4.54-1.06-9.42-5.62-10.88-4.55-1.42-9.4 1.1-10.87 5.6-1.44 4.58 1.06 9.42 5.62 10.88.72.23 1.18.87 1.18 1.65zm1.45-26.7c-2.68 0-4.87-2.2-4.87-4.85.03-2.7 2.2-4.88 4.88-4.88 2.62 0 4.77 2.1 4.84 4.75.03 2.7-2.1 4.88-4.77 4.88h-.07zm0-6.3c-.8 0-1.45.68-1.45 1.45 0 .83.65 1.46 1.45 1.46.8 0 1.44-.63 1.44-1.46v-.1c0-.76-.65-1.4-1.44-1.4zM795.93 373.62h-28.7c-.94 0-1.72-.77-1.72-1.7V348.1c0-.5.18-.9.5-1.23.35-.32.74-.5 1.22-.5h28.7c.5 0 .88.18 1.23.53.32.33.48.7.48 1.2v23.83c0 .92-.77 1.7-1.7 1.7zm-27-3.4h25.3v-20.54h-25.3z" stroke="#fff" stroke-opacity="0" fill="#0c7cba"/><path d="M791.23 348.2h-3.4v-6.5c.12-3.58-2.64-6.6-6.24-6.8-3.6.15-6.42 3.18-6.3 6.8v6.62h-3.4v-6.6c-.12-5.5 4.2-10.06 9.7-10.2 5.46.2 9.75 4.73 9.6 10.2zM781.58 361.9c-2.63-.16-4.65-2.44-4.5-5.07.16-2.44 2.07-4.35 4.5-4.5 2.64.16 4.65 2.44 4.5 5.07-.15 2.44-2.06 4.35-4.5 4.5zm0-6.15c-.64.07-1.14.56-1.2 1.2-.1.77.45 1.45 1.2 1.53h.06c.73-.02 1.32-.63 1.3-1.37 0-.37-.12-.7-.4-.96-.26-.27-.58-.4-.96-.4z" stroke="#fff" stroke-opacity="0" fill="#0c7cba"/><path d="M779.88 359.6h3.4v7.2h-3.4v-7.2z" stroke="#fff" stroke-opacity="0" fill="#0c7cba"/><use xlink:href="#b" transform="matrix(1,0,0,1,710,389) translate(7.549999999999997 14.4)"/><use xlink:href="#c" transform="matrix(1,0,0,1,710,389) translate(81.45 14.4)"/><use xlink:href="#d" transform="matrix(1,0,0,1,710,389) translate(48 36)"/><path d="M600 140h80v80h-80v-80z" stroke="#fff" stroke-opacity="0" fill="#d6242d"/><path d="M626.13 206.13c-.32 0-.58-.1-.8-.36l-3.73-4.24c-.2-.2-.27-.47-.27-.74v-2.73l-2.88-2.93c-.42-.42-.42-1.1-.02-1.47 0-.05.02-.05.02-.05l2.88-2.88v-1.2l-2.88-2.93c-.42-.4-.42-1.1-.02-1.5h.02l2.88-2.9v-2.55c-5.33-2.05-8.6-6.9-8.53-12.62.05-7.33 6.05-13.3 13.4-13.24 7.37.04 13.32 6.06 13.27 13.4.02 5.64-3.26 10.4-8.54 12.45v22.2c0 .36-.13.62-.37.83l-3.73 3.2c-.22.15-.43.25-.7.25zm-2.66-5.75l2.77 3.24 2.56-2.25v-22.5c-.03-.48.27-.9.75-1.06 3.54-1.14 6.08-3.65 7.22-7.2 1.9-5.87-1.33-12.2-7.22-14.1-5.9-1.88-12.2 1.37-14.08 7.23-1.9 5.87 1.33 12.2 7.22 14.08.47.17.8.6.77 1.06v3.82c0 .26-.1.53-.32.73l-2.43 2.48 2.43 2.46c.2.2.32.4.32.73v2.14c0 .28-.1.54-.32.75l-2.43 2.46 2.43 2.47c.2.2.32.42.32.73zm2.66-32.1c-2.64 0-4.8-2.14-4.8-4.8 0-2.68 2.16-4.83 4.8-4.83 2.64 0 4.8 2.15 4.8 4.82 0 2.67-2.16 4.82-4.8 4.82zm0-7.48c-1.46 0-2.66 1.2-2.66 2.67s1.2 2.67 2.66 2.67c1.47 0 2.67-1.2 2.67-2.67s-1.2-2.67-2.67-2.67zM665.15 198.67h-32.08v-2.14h32v-23.46H641.6v-2.14h23.55c1.13 0 2.02.9 2.05 2v23.74c-.03 1.1-.92 2-2.05 2z" stroke="#fff" stroke-opacity="0" fill="#fff"/><path d="M636.8 188.53c-2.36 0-4.27-1.9-4.27-4.26s1.9-4.27 4.27-4.27c2.36 0 4.27 1.9 4.27 4.27 0 2.35-1.9 4.26-4.27 4.26zm0-6.4c-1.18 0-2.13.96-2.13 2.14 0 1.17.95 2.13 2.13 2.13s2.13-.96 2.13-2.13c0-1.18-.95-2.14-2.13-2.14zM647.47 188.53c-2.36 0-4.27-1.9-4.27-4.26s1.9-4.27 4.27-4.27c2.35 0 4.26 1.9 4.26 4.27 0 2.35-1.9 4.26-4.26 4.26zm0-6.4c-1.18 0-2.14.96-2.14 2.14 0 1.17.96 2.13 2.14 2.13 1.17 0 2.13-.96 2.13-2.13 0-1.18-.96-2.14-2.13-2.14zM633.07 191.2h7.46v2.13h-7.46v-2.13zM643.73 191.2h7.47v2.13h-7.47v-2.13zM654.4 191.2h7.47v2.13h-7.47v-2.13z" stroke="#fff" stroke-opacity="0" fill="#fff"/><use xlink:href="#e" transform="matrix(1,0,0,1,570,229) translate(35.525 14.4)"/><use xlink:href="#f" transform="matrix(1,0,0,1,570,229) translate(36.574999999999996 36)"/><use xlink:href="#g" transform="matrix(1,0,0,1,570,229) translate(1.9249999999999972 57.6)"/><use xlink:href="#h" transform="matrix(1,0,0,1,570,229) translate(6.924999999999997 57.6)"/><use xlink:href="#i" transform="matrix(1,0,0,1,570,229) translate(47.875 57.6)"/><use xlink:href="#j" transform="matrix(1,0,0,1,570,229) translate(93.175 57.6)"/><path d="M1480 400h100v100h-100V400z" stroke="#fff" stroke-opacity="0" stroke-width="2" fill="#3b48cc"/><path d="M1547 453.98l-8.83 8.8c1.68-.47 3.04-1 4.58-1.87.9.54 1.4 1.4 1.58 2.4 0 2.47-5.17 5.14-12.83 6.2-2.54.34-4.62.47-7.16.47h-1.32c-10.8-.2-18.68-3.6-18.68-6.66.13-1 .68-1.8 1.58-2.4 4.18 2.34 10.98 3.74 18.42 3.74h.13l.77-2.66h-.9c-7.35 0-14.15-1.47-17.74-3.73-1.45-.94-2.26-2-2.26-2.87v-6.2c4.08 3.14 12.2 4.74 20 4.74 1.04 0 2.08 0 3.12-.07l.78-2.66c-1.36.05-2.6.12-3.9.12-11.43 0-20-3.53-20-6.66.13-1.07.68-1.87 1.58-2.4 3.68 2.06 9.35 3.33 15.74 3.66l.1-2.66c-6.3-.33-12.03-1.67-15.16-3.73-1.45-.87-2.22-1.93-2.26-2.87v-6.12c4.08 3.13 12.2 4.73 20 4.73h.27l1.46-2.67h-1.72c-11.43 0-20-3.46-20-6.66 0-3.13 8.57-6.66 20-6.66 4.03 0 7.48.4 11.42 1.33h7.35c-4.03-2.45-10.92-4-18.76-4-10.98 0-22.68 3.28-22.68 9.34v10.72c.1 1.6.77 2.93 2.04 3.93-1.27 1.06-1.95 2.4-2.04 4v10.65c.1 1.66.77 3 2.04 4.06-1.27 1-1.95 2.34-2.04 4v10.93c.36 5.87 11.84 9 22.68 9 10.83 0 22.3-3.13 22.67-9.06v-10.93c-.03-1.6-.76-3-2.03-4 1.27-1 1.95-2.4 2.04-4zm-2.67 20c0 3.12-8.57 6.65-20 6.65-11.42 0-20-3.47-20-6.66v-6.13c4.1 3.06 12.2 4.73 20 4.73 7.8 0 15.92-1.67 20-4.73z" stroke="#fff" stroke-opacity="0" stroke-width="2" fill="#fff"/><path d="M1510 436.7c0 .9-.75 1.66-1.67 1.66-.92 0-1.66-.75-1.66-1.67 0-.93.74-1.67 1.66-1.67.92 0 1.67.74 1.67 1.66zM1510 455.36c0 .92-.75 1.67-1.67 1.67-.92 0-1.66-.75-1.66-1.67 0-.92.74-1.67 1.66-1.67.92 0 1.67.74 1.67 1.66zM1510 474.03c0 .92-.75 1.66-1.67 1.66-.92 0-1.66-.75-1.66-1.67 0-.92.74-1.67 1.66-1.67.92 0 1.67.75 1.67 1.67zM1527.66 468.64c-.24 0-.44-.05-.67-.18-.55-.32-.78-.95-.6-1.54l7.47-24.96h-7.55c-.74.04-1.34-.54-1.34-1.32 0-.22.04-.45.17-.63l8-16c.22-.46.65-.74 1.2-.74h17.33c.73-.04 1.34.55 1.37 1.28.03.18 0 .3-.03.5l-3.45 10.2h7.5c.72.05 1.32.64 1.32 1.37 0 .37-.14.64-.37.9l-29.34 30.7c-.28.3-.6.44-1.04.44zm.83-29.3h7.17c.44 0 .8.17 1.07.5.24.35.34.76.2 1.17l-6.4 21.33 23.34-24.36h-6.2c-.75 0-1.38-.55-1.4-1.27 0-.2 0-.37.05-.5l3.4-10.26h-14.66z" stroke="#fff" stroke-opacity="0" stroke-width="2" fill="#fff"/><use xlink:href="#k" transform="matrix(1,0,0,1,1450,509) translate(20.875 14.4)"/><use xlink:href="#l" transform="matrix(1,0,0,1,1450,509) translate(62.175000000000004 14.4)"/><path d="M543.47 489.1V180h38.03" stroke="#000" stroke-width="2" fill="none"/><path d="M544.48 490.1h-2v-1.04h2z"/><path d="M596.76 180l-14.26 4.64v-9.28z" stroke="#000" stroke-width="2"/><use xlink:href="#m" transform="matrix(1,0,0,1,343.82499999999993,355.95969236366847) translate(0 14.4)"/><use xlink:href="#n" transform="matrix(1,0,0,1,343.82499999999993,355.95969236366847) translate(20 14.4)"/><use xlink:href="#o" transform="matrix(1,0,0,1,343.82499999999993,355.95969236366847) translate(55.85 14.4)"/><path d="M681 180h91v101.5" stroke="#000" stroke-width="2" fill="none"/><path d="M681.03 181H680v-2h1.03z"/><path d="M772 296.76l-4.64-14.26h9.28z" stroke="#000" stroke-width="2"/><use xlink:href="#p" transform="matrix(1,0,0,1,716.6256356846353,158.03792951958224) translate(0 14.4)"/><use xlink:href="#q" transform="matrix(1,0,0,1,716.6256356846353,158.03792951958224) translate(20 14.4)"/><use xlink:href="#r" transform="matrix(1,0,0,1,716.6256356846353,158.03792951958224) translate(160.8 14.4)"/><use xlink:href="#s" transform="matrix(1,0,0,1,716.6256356846353,158.03792951958224) translate(249.75 14.4)"/><use xlink:href="#t" transform="matrix(1,0,0,1,716.6256356846353,158.03792951958224) translate(264.75 14.4)"/><path d="M298.3 570.1H241c-.9 0-1.7-.8-1.7-1.7v-76.63c0-.88.8-1.68 1.7-1.68h57.3c.9 0 1.7.8 1.7 1.67v76.64c0 .9-.8 1.7-1.7 1.7zm-55.6-3.45h53.9v-73.12h-53.9z" stroke="#fff" stroke-opacity="0" fill="#d86613"/><path d="M258.48 512.66h-9.54c-.93 0-1.7-.77-1.7-1.7v-9.6c0-.92.77-1.7 1.7-1.7h9.54c.94 0 1.7.78 1.7 1.7v9.6c0 .93-.76 1.7-1.7 1.7zm-7.85-3.4h6.16v-6.2h-6.17zM258.48 535h-9.54c-.93 0-1.7-.78-1.7-1.7v-9.6c0-.93.77-1.7 1.7-1.7h9.54c.94 0 1.7.77 1.7 1.7v9.6c0 .92-.76 1.7-1.7 1.7zm-7.85-3.4h6.16v-6.2h-6.17zM258.48 557.32h-9.54c-.93 0-1.7-.76-1.7-1.7v-9.57c0-.93.77-1.7 1.7-1.7h9.54c.94 0 1.7.77 1.7 1.7v9.57c0 .94-.76 1.7-1.7 1.7zm-7.85-3.4h6.16v-6.17h-6.17zM263.28 504.45h28.66v3.4h-28.66v-3.4zM263.28 526.8h28.66v3.4h-28.66v-3.4zM263.28 549.13h28.66v3.4h-28.66v-3.4z" stroke="#fff" stroke-opacity="0" fill="#d86613"/><use xlink:href="#u" transform="matrix(1,0,0,1,209.3,579.0875) translate(16.549999999999997 14.4)"/><use xlink:href="#v" transform="matrix(1,0,0,1,209.3,579.0875) translate(69.5 14.4)"/><path d="M301 530.1h183.97" stroke="#000" stroke-width="2" fill="none"/><path d="M301.03 531.1H300v-2h1.03z"/><path d="M500.24 530.1l-14.27 4.62v-9.27z" stroke="#000" stroke-width="2"/><use xlink:href="#w" transform="matrix(1,0,0,1,332.81249999999994,504.4874999999999) translate(0 14.4)"/><use xlink:href="#x" transform="matrix(1,0,0,1,332.81249999999994,504.4874999999999) translate(20 14.4)"/><use xlink:href="#y" transform="matrix(1,0,0,1,332.81249999999994,504.4874999999999) translate(89.9 14.4)"/><path d="M908.65 570.1h-57.3c-.9 0-1.7-.8-1.7-1.7v-76.63c0-.88.8-1.68 1.7-1.68h57.3c.9 0 1.7.8 1.7 1.67v76.64c0 .9-.8 1.7-1.7 1.7zm-55.6-3.45h53.9v-73.12h-53.9z" stroke="#fff" stroke-opacity="0" fill="#d86613"/><path d="M868.83 512.66h-9.54c-.94 0-1.7-.77-1.7-1.7v-9.6c0-.92.76-1.7 1.7-1.7h9.53c.94 0 1.7.78 1.7 1.7v9.6c0 .93-.76 1.7-1.7 1.7zm-7.85-3.4h6.16v-6.2h-6.16zM868.83 535h-9.54c-.94 0-1.7-.78-1.7-1.7v-9.6c0-.93.76-1.7 1.7-1.7h9.53c.94 0 1.7.77 1.7 1.7v9.6c0 .92-.76 1.7-1.7 1.7zm-7.85-3.4h6.16v-6.2h-6.16zM868.83 557.32h-9.54c-.94 0-1.7-.76-1.7-1.7v-9.57c0-.93.76-1.7 1.7-1.7h9.53c.94 0 1.7.77 1.7 1.7v9.57c0 .94-.76 1.7-1.7 1.7zm-7.85-3.4h6.16v-6.17h-6.16zM873.63 504.45h28.66v3.4h-28.67v-3.4zM873.63 526.8h28.66v3.4h-28.67v-3.4zM873.63 549.13h28.66v3.4h-28.67v-3.4z" stroke="#fff" stroke-opacity="0" fill="#d86613"/><use xlink:href="#u" transform="matrix(1,0,0,1,819.65,579.0875) translate(16.549999999999997 14.4)"/><use xlink:href="#v" transform="matrix(1,0,0,1,819.65,579.0875) translate(69.5 14.4)"/><path d="M584.47 530.1h246.68" stroke="#000" stroke-width="2" fill="none"/><path d="M584.5 531.1h-1.02v-2h1.02z"/><path d="M846.4 530.1l-14.25 4.62v-9.27z" stroke="#000" stroke-width="2"/><path d="M1119.26 380h-54.52c-2.63 0-4.74-2.16-4.74-4.8v-70.4c0-2.64 2.1-4.8 4.74-4.8h54.52c2.63 0 4.74 2.16 4.74 4.8v70.4c0 2.64-2.1 4.8-4.74 4.8zm-54.52-76.56c-.77 0-1.35.56-1.35 1.36v70.4c0 .8.63 1.36 1.34 1.36h54.52c.77 0 1.35-.56 1.35-1.36v-70.4c0-.8-.63-1.36-1.34-1.36z" stroke="#fff" stroke-opacity="0" fill="#c92d39"/><path d="M1077.68 351.27c-.44 0-.8-.14-1.1-.4l-3.15-2.7c-.38-.33-.6-.78-.6-1.3v-18.16c-6.1-2.68-8.87-9.8-6.2-15.88 2.68-6.12 9.8-8.86 15.9-6.2 6.1 2.7 8.86 9.8 6.2 15.88-1.3 2.88-3.3 4.93-6.2 6.2v1.3l2.2 2.18c.64.7.64 1.74 0 2.42l-2.2 2.2v.4l2.2 2.2c.64.64.64 1.73 0 2.37l-2.2 2.2v2c0 .4-.13.82-.42 1.14l-3.15 3.57c-.33.42-.77.6-1.27.6zm-1.45-5.12l1.28 1.1 1.62-1.83v-2.14c0-.46.17-.87.5-1.2l1.48-1.5-1.47-1.5c-.34-.32-.5-.73-.5-1.2v-1.77c0-.5.16-.86.5-1.22l1.47-1.46-1.47-1.5c-.34-.33-.5-.74-.5-1.2v-3.2c0-.77.45-1.4 1.17-1.64 2.78-.87 4.73-2.83 5.62-5.6 1.45-4.54-1.06-9.42-5.62-10.88-4.55-1.42-9.4 1.1-10.87 5.6-1.44 4.58 1.06 9.42 5.62 10.88.72.23 1.18.87 1.18 1.65zm1.45-26.7c-2.68 0-4.87-2.2-4.87-4.85.03-2.7 2.2-4.88 4.88-4.88 2.62 0 4.77 2.1 4.84 4.75.03 2.7-2.1 4.88-4.77 4.88h-.07zm0-6.3c-.8 0-1.45.68-1.45 1.45 0 .83.65 1.46 1.45 1.46.8 0 1.44-.63 1.44-1.46v-.1c0-.76-.65-1.4-1.44-1.4zM1115.93 373.62h-28.7c-.94 0-1.72-.77-1.72-1.7V348.1c0-.5.18-.9.5-1.23.35-.32.74-.5 1.22-.5h28.7c.5 0 .88.18 1.23.53.32.33.48.7.48 1.2v23.83c0 .92-.77 1.7-1.7 1.7zm-27-3.4h25.3v-20.54h-25.3z" stroke="#fff" stroke-opacity="0" fill="#c92d39"/><path d="M1111.23 348.2h-3.4v-6.5c.12-3.58-2.64-6.6-6.24-6.8-3.6.15-6.42 3.18-6.3 6.8v6.62h-3.4v-6.6c-.12-5.5 4.2-10.06 9.7-10.2 5.46.2 9.75 4.73 9.6 10.2zM1101.58 361.9c-2.63-.16-4.65-2.44-4.5-5.07.16-2.44 2.07-4.35 4.5-4.5 2.64.16 4.65 2.44 4.5 5.07-.15 2.44-2.06 4.35-4.5 4.5zm0-6.15c-.64.07-1.14.56-1.2 1.2-.1.77.45 1.45 1.2 1.53h.06c.73-.02 1.32-.63 1.3-1.37 0-.37-.12-.7-.4-.96-.26-.27-.58-.4-.96-.4z" stroke="#fff" stroke-opacity="0" fill="#c92d39"/><path d="M1099.88 359.6h3.4v7.2h-3.4v-7.2z" stroke="#fff" stroke-opacity="0" fill="#c92d39"/><use xlink:href="#z" transform="matrix(1,0,0,1,1030,389) translate(1.5249999999999986 14.4)"/><use xlink:href="#c" transform="matrix(1,0,0,1,1030,389) translate(87.475 14.4)"/><use xlink:href="#d" transform="matrix(1,0,0,1,1030,389) translate(48 36)"/><path d="M681 180h411v101.5" stroke="#000" stroke-width="2" fill="none"/><path d="M681.03 181H680v-2h1.03z"/><path d="M1092 296.76l-4.64-14.26h9.28z" stroke="#000" stroke-width="2"/><path d="M1122.3 570.1H1065c-.9 0-1.7-.8-1.7-1.7v-76.63c0-.88.8-1.68 1.7-1.68h57.3c.9 0 1.7.8 1.7 1.67v76.64c0 .9-.8 1.7-1.7 1.7zm-55.6-3.45h53.9v-73.12h-53.9z" stroke="#fff" stroke-opacity="0" fill="#c92d39"/><path d="M1082.48 512.66h-9.54c-.93 0-1.7-.77-1.7-1.7v-9.6c0-.92.77-1.7 1.7-1.7h9.54c.94 0 1.7.78 1.7 1.7v9.6c0 .93-.76 1.7-1.7 1.7zm-7.85-3.4h6.16v-6.2h-6.17zM1082.48 535h-9.54c-.93 0-1.7-.78-1.7-1.7v-9.6c0-.93.77-1.7 1.7-1.7h9.54c.94 0 1.7.77 1.7 1.7v9.6c0 .92-.76 1.7-1.7 1.7zm-7.85-3.4h6.16v-6.2h-6.17zM1082.48 557.32h-9.54c-.93 0-1.7-.76-1.7-1.7v-9.57c0-.93.77-1.7 1.7-1.7h9.54c.94 0 1.7.77 1.7 1.7v9.57c0 .94-.76 1.7-1.7 1.7zm-7.85-3.4h6.16v-6.17h-6.17zM1087.28 504.45h28.66v3.4h-28.66v-3.4zM1087.28 526.8h28.66v3.4h-28.66v-3.4zM1087.28 549.13h28.66v3.4h-28.66v-3.4z" stroke="#fff" stroke-opacity="0" fill="#c92d39"/><use xlink:href="#A" transform="matrix(1,0,0,1,1033.3,579.0875) translate(20.025 14.4)"/><use xlink:href="#B" transform="matrix(1,0,0,1,1033.3,579.0875) translate(16.549999999999997 36)"/><use xlink:href="#v" transform="matrix(1,0,0,1,1033.3,579.0875) translate(69.5 36)"/><path d="M911.35 530.1h133.45" stroke="#000" stroke-width="2" fill="none"/><path d="M911.38 531.1h-1.03v-2h1.03z"/><path d="M1060.06 530.1l-14.26 4.62v-9.27z" stroke="#000" stroke-width="2"/><path d="M805 340h75v131.6" stroke="#000" stroke-width="2" fill="none"/><path d="M805.03 341H804v-2h1.03z"/><path d="M880 486.85l-4.64-14.26h9.28z" stroke="#000" stroke-width="2"/><use xlink:href="#C" transform="matrix(1,0,0,1,888,408.01709499229406) translate(0 14.4)"/><use xlink:href="#D" transform="matrix(1,0,0,1,888,408.01709499229406) translate(20 14.4)"/><use xlink:href="#v" transform="matrix(1,0,0,1,888,408.01709499229406) translate(85.95 14.4)"/><path d="M1125 340h177v110h159.5" stroke="#000" stroke-width="2" fill="none"/><path d="M1125.03 341H1124v-2h1.03z"/><path d="M1476.76 450l-14.26 4.64v-9.28z" stroke="#000" stroke-width="2"/><path d="M1125 530.1h177V450h159.5" stroke="#000" stroke-width="2" fill="none"/><path d="M1125.03 531.1H1124v-2h1.03z"/><path d="M1476.76 450l-14.26 4.64v-9.28z" stroke="#000" stroke-width="2"/><use xlink:href="#E" transform="matrix(1,0,0,1,1349.3310710021585,424.4) translate(0 14.4)"/><use xlink:href="#F" transform="matrix(1,0,0,1,1349.3310710021585,424.4) translate(20 14.4)"/><path d="M180 960h120v120H180V960z" stroke="#fff" stroke-opacity="0" stroke-width="2" fill="#3b48cc"/><path d="M260.4 1024.78l-10.6 10.55c2-.56 3.65-1.2 5.5-2.24 1.1.63 1.68 1.67 1.9 2.87 0 2.96-6.2 6.16-15.4 7.44-3.05.4-5.55.56-8.6.56h-1.58c-12.95-.24-22.42-4.3-22.42-8 .17-1.2.82-2.15 1.9-2.87 5 2.8 13.18 4.47 22.1 4.47h.17l.92-3.2h-1.1c-8.8 0-16.98-1.76-21.28-4.47-1.74-1.12-2.72-2.4-2.72-3.44v-7.44c4.9 3.76 14.64 5.68 24 5.68 1.25 0 2.5 0 3.76-.08l.92-3.2c-1.63.08-3.1.16-4.68.16-13.7 0-24-4.23-24-8 .17-1.27.82-2.23 1.9-2.87 4.42 2.5 11.22 4 18.9 4.4l.1-3.2c-7.56-.4-14.42-2-18.18-4.47-1.74-1.04-2.66-2.3-2.72-3.43v-7.36c4.9 3.76 14.64 5.68 24 5.68h.33l1.74-3.2h-2.07c-13.7 0-24-4.16-24-8 0-3.75 10.3-8 24-8 4.85 0 8.98.5 13.72 1.6h8.8c-4.83-2.95-13.1-4.78-22.52-4.78-13.17 0-27.2 3.9-27.2 11.2V1004c.1 1.92.92 3.5 2.44 4.7-1.52 1.3-2.34 2.9-2.45 4.8v12.8c.1 2 .92 3.6 2.44 4.87-1.52 1.2-2.34 2.8-2.45 4.8V1049.07c.43 7.05 14.2 10.8 27.2 10.8s26.78-3.75 27.2-10.87V1035.88c-.04-1.9-.9-3.6-2.44-4.78 1.53-1.2 2.34-2.88 2.45-4.8zm-3.2 23.98c0 3.76-10.28 8-24 8-13.7 0-24-4.16-24-8v-7.35c4.9 3.68 14.64 5.68 24 5.68s19.1-2 24-5.67z" stroke="#fff" stroke-opacity="0" stroke-width="2" fill="#fff"/><path d="M216 1004.03c0 1.1-.9 2-2 2s-2-.9-2-2 .9-2 2-2 2 .9 2 2zM216 1026.43c0 1.1-.9 2-2 2s-2-.9-2-2 .9-2 2-2 2 .9 2 2zM216 1048.83c0 1.1-.9 2-2 2s-2-.9-2-2 .9-2 2-2 2 .9 2 2zM237.2 1042.37c-.3 0-.53-.06-.8-.22-.66-.38-.94-1.14-.74-1.85l8.98-29.95h-9.06c-.88.06-1.6-.65-1.6-1.58 0-.27.04-.54.2-.76l9.58-19.2c.28-.56.8-.88 1.45-.88H266c.9-.06 1.62.65 1.66 1.52.04.22 0 .38-.04.6l-4.13 12.25h8.97c.88.05 1.6.76 1.6 1.63 0 .43-.16.76-.44 1.1l-35.2 36.8c-.32.37-.72.54-1.24.54zm1-35.18h8.6c.53 0 .97.2 1.3.6.27.43.4.92.23 1.4l-7.7 25.6 28.03-29.24h-7.46c-.88 0-1.64-.65-1.68-1.52 0-.22 0-.44.08-.6l4.1-12.3h-17.6z" stroke="#fff" stroke-opacity="0" stroke-width="2" fill="#fff"/><use xlink:href="#k" transform="matrix(1,0,0,1,150,1089) translate(30.875 14.4)"/><use xlink:href="#l" transform="matrix(1,0,0,1,150,1089) translate(72.17500000000001 14.4)"/><path d="M740 680h240v60H740z" fill="none"/><use xlink:href="#G" transform="matrix(1,0,0,1,740,680) translate(73.125 33.6)"/><path d="M458.74 900H404.2c-2.6 0-4.73-2.16-4.73-4.8v-70.4c0-2.64 2.12-4.8 4.74-4.8h54.54c2.62 0 4.73 2.16 4.73 4.8v70.4c0 2.64-2.1 4.8-4.73 4.8zm-54.53-76.56c-.76 0-1.33.56-1.33 1.36v70.4c0 .8.64 1.36 1.34 1.36h54.54c.77 0 1.34-.56 1.34-1.36v-70.4c0-.8-.64-1.36-1.34-1.36z" stroke="#fff" stroke-opacity="0" fill="#c92d39"/><path d="M417.15 871.27c-.43 0-.8-.14-1.1-.4l-3.14-2.7c-.38-.33-.6-.78-.6-1.3v-18.16c-6.1-2.68-8.87-9.8-6.2-15.88 2.7-6.12 9.8-8.86 15.9-6.2 6.1 2.7 8.87 9.8 6.2 15.88-1.28 2.88-3.3 4.93-6.2 6.2v1.3l2.2 2.18c.64.7.64 1.74 0 2.42l-2.2 2.2v.4l2.2 2.2c.64.64.64 1.73 0 2.37l-2.2 2.2v2c0 .4-.12.82-.4 1.14l-3.17 3.57c-.34.42-.77.6-1.28.6zm-1.44-5.12l1.28 1.1 1.62-1.83v-2.14c0-.46.17-.87.5-1.2l1.47-1.5-1.47-1.5c-.33-.32-.5-.73-.5-1.2v-1.77c0-.5.17-.86.5-1.22l1.47-1.46-1.47-1.5c-.33-.33-.5-.74-.5-1.2v-3.2c0-.77.46-1.4 1.18-1.64 2.77-.87 4.72-2.83 5.62-5.6 1.44-4.54-1.06-9.42-5.62-10.88-4.56-1.42-9.4 1.1-10.87 5.6-1.44 4.58 1.07 9.42 5.62 10.88.73.23 1.2.87 1.2 1.65zm1.45-26.7c-2.67 0-4.87-2.2-4.87-4.85.03-2.7 2.2-4.88 4.87-4.88 2.63 0 4.78 2.1 4.85 4.75.02 2.7-2.1 4.88-4.78 4.88h-.07zm0-6.3c-.8 0-1.44.68-1.44 1.45 0 .83.66 1.46 1.45 1.46.8 0 1.45-.63 1.45-1.46v-.1c0-.76-.65-1.4-1.45-1.4zM455.4 893.62h-28.7c-.94 0-1.7-.77-1.7-1.7V868.1c0-.5.15-.9.47-1.23.35-.32.74-.5 1.22-.5h28.7c.5 0 .87.18 1.23.53.32.33.48.7.48 1.2v23.83c0 .92-.76 1.7-1.7 1.7zm-27-3.4h25.3v-20.54h-25.3z" stroke="#fff" stroke-opacity="0" fill="#c92d39"/><path d="M450.7 868.2h-3.4v-6.5c.12-3.58-2.64-6.6-6.23-6.8-3.6.15-6.42 3.18-6.28 6.8v6.62h-3.4v-6.6c-.15-5.5 4.18-10.06 9.67-10.2 5.47.2 9.75 4.73 9.62 10.2zM441.06 881.9c-2.64-.16-4.65-2.44-4.5-5.07.15-2.44 2.06-4.35 4.5-4.5 2.63.16 4.65 2.44 4.5 5.07-.16 2.44-2.06 4.35-4.5 4.5zm0-6.15c-.65.07-1.14.56-1.22 1.2-.1.77.46 1.45 1.22 1.53h.05c.75-.02 1.33-.63 1.32-1.37 0-.37-.13-.7-.4-.96-.26-.27-.58-.4-.96-.4z" stroke="#fff" stroke-opacity="0" fill="#c92d39"/><path d="M439.36 879.6h3.4v7.2h-3.4v-7.2z" stroke="#fff" stroke-opacity="0" fill="#c92d39"/><use xlink:href="#z" transform="matrix(1,0,0,1,369.47499999999997,909) translate(1.5249999999999986 14.4)"/><use xlink:href="#c" transform="matrix(1,0,0,1,369.47499999999997,909) translate(87.475 14.4)"/><use xlink:href="#d" transform="matrix(1,0,0,1,369.47499999999997,909) translate(48 36)"/><path d="M458.48 1060h-57.3c-.92 0-1.7-.8-1.7-1.68v-76.64c0-.88.78-1.68 1.7-1.68h57.3c.9 0 1.7.8 1.7 1.68v76.64c0 .88-.8 1.68-1.7 1.68zm-55.6-3.44h53.9v-73.12h-53.9z" stroke="#fff" stroke-opacity="0" fill="#c92d39"/><path d="M418.66 1002.57h-9.55c-.92 0-1.68-.77-1.68-1.7v-9.6c0-.92.76-1.7 1.7-1.7h9.54c.93 0 1.7.78 1.7 1.7v9.6c0 .93-.77 1.7-1.7 1.7zm-7.85-3.4h6.16V993h-6.15zM418.66 1024.9h-9.55c-.92 0-1.68-.76-1.68-1.7v-9.58c0-.94.76-1.7 1.7-1.7h9.54c.93 0 1.7.76 1.7 1.7v9.58c0 .94-.77 1.7-1.7 1.7zm-7.85-3.4h6.16v-6.18h-6.15zM418.66 1047.23h-9.55c-.92 0-1.68-.76-1.68-1.7v-9.57c0-.93.76-1.7 1.7-1.7h9.54c.93 0 1.7.77 1.7 1.7v9.57c0 .94-.77 1.7-1.7 1.7zm-7.85-3.4h6.16v-6.17h-6.15zM423.46 994.37h28.65v3.4h-28.64v-3.4zM423.46 1016.7h28.65v3.4h-28.64v-3.4zM423.46 1039.05h28.65v3.4h-28.64v-3.4z" stroke="#fff" stroke-opacity="0" fill="#c92d39"/><use xlink:href="#A" transform="matrix(1,0,0,1,369.47499999999997,1069) translate(20.025 14.4)"/><use xlink:href="#B" transform="matrix(1,0,0,1,369.47499999999997,1069) translate(16.549999999999997 36)"/><use xlink:href="#v" transform="matrix(1,0,0,1,369.47499999999997,1069) translate(69.5 36)"/><path d="M910.35 800h80v80h-80v-80z" stroke="#fff" stroke-opacity="0" fill="#d6242d"/><path d="M936.48 866.13c-.32 0-.58-.1-.8-.36l-3.73-4.24c-.2-.2-.27-.47-.27-.74v-2.73l-2.88-2.93c-.42-.42-.42-1.1-.02-1.47 0-.05.02-.05.02-.05l2.88-2.88v-1.2l-2.88-2.93c-.42-.4-.42-1.1-.02-1.5h.02l2.88-2.9v-2.55c-5.33-2.05-8.6-6.9-8.53-12.62.05-7.33 6.05-13.3 13.4-13.24 7.37.04 13.32 6.06 13.27 13.4.02 5.64-3.26 10.4-8.54 12.45v22.2c0 .36-.13.62-.37.83l-3.72 3.2c-.22.15-.43.25-.7.25zm-2.66-5.75l2.77 3.24 2.55-2.25v-22.5c-.03-.48.27-.9.75-1.06 3.54-1.14 6.08-3.65 7.22-7.2 1.9-5.87-1.33-12.2-7.22-14.1-5.9-1.88-12.2 1.37-14.08 7.23-1.9 5.87 1.33 12.2 7.22 14.08.48.17.8.6.78 1.06v3.82c0 .26-.1.53-.32.73l-2.43 2.48 2.43 2.46c.2.2.32.4.32.73v2.14c0 .28-.1.54-.32.75l-2.43 2.46 2.43 2.47c.2.2.32.42.32.73zm2.66-32.1c-2.64 0-4.8-2.14-4.8-4.8 0-2.68 2.16-4.83 4.8-4.83 2.64 0 4.8 2.15 4.8 4.82 0 2.67-2.16 4.82-4.8 4.82zm0-7.48c-1.46 0-2.66 1.2-2.66 2.67s1.2 2.67 2.66 2.67c1.47 0 2.67-1.2 2.67-2.67s-1.2-2.67-2.67-2.67zM975.5 858.67h-32.08v-2.14h32v-23.46h-23.47v-2.14h23.55c1.13 0 2.02.9 2.05 2v23.74c-.03 1.1-.92 2-2.05 2z" stroke="#fff" stroke-opacity="0" fill="#fff"/><path d="M947.15 848.53c-2.36 0-4.27-1.9-4.27-4.26s1.9-4.27 4.27-4.27c2.36 0 4.27 1.9 4.27 4.27 0 2.35-1.9 4.26-4.27 4.26zm0-6.4c-1.18 0-2.13.96-2.13 2.14 0 1.17.95 2.13 2.13 2.13s2.13-.96 2.13-2.13c0-1.18-.95-2.14-2.13-2.14zM957.82 848.53c-2.36 0-4.27-1.9-4.27-4.26s1.9-4.27 4.27-4.27c2.35 0 4.26 1.9 4.26 4.27 0 2.35-1.9 4.26-4.26 4.26zm0-6.4c-1.18 0-2.14.96-2.14 2.14 0 1.17.96 2.13 2.14 2.13 1.17 0 2.13-.96 2.13-2.13 0-1.18-.96-2.14-2.13-2.14zM943.42 851.2h7.46v2.13h-7.46v-2.13zM954.08 851.2h7.47v2.13h-7.47v-2.13zM964.75 851.2h7.47v2.13h-7.47v-2.13z" stroke="#fff" stroke-opacity="0" fill="#fff"/><use xlink:href="#H" transform="matrix(1,0,0,1,880.35,889) translate(2.0999999999999943 14.4)"/><use xlink:href="#I" transform="matrix(1,0,0,1,880.35,889) translate(4.424999999999997 36)"/><use xlink:href="#i" transform="matrix(1,0,0,1,880.35,889) translate(45.375 36)"/><use xlink:href="#j" transform="matrix(1,0,0,1,880.35,889) translate(90.675 36)"/><path d="M991.35 840h86.85" stroke="#000" stroke-width="2" fill="none"/><path d="M991.38 841h-1.03v-2h1.03z"/><path d="M1093.46 840l-14.26 4.64v-9.28z" stroke="#000" stroke-width="2"/><path d="M1155.96 880h-54.52c-2.63 0-4.74-2.16-4.74-4.8v-70.4c0-2.64 2.1-4.8 4.74-4.8h54.52c2.63 0 4.74 2.16 4.74 4.8v70.4c0 2.64-2.1 4.8-4.74 4.8zm-54.52-76.56c-.77 0-1.35.56-1.35 1.36v70.4c0 .8.63 1.36 1.34 1.36h54.52c.77 0 1.35-.56 1.35-1.36v-70.4c0-.8-.63-1.36-1.34-1.36z" stroke="#fff" stroke-opacity="0" fill="#0c7cba"/><path d="M1114.38 851.27c-.44 0-.8-.14-1.1-.4l-3.15-2.7c-.38-.33-.6-.78-.6-1.3v-18.16c-6.1-2.68-8.87-9.8-6.2-15.88 2.68-6.12 9.8-8.86 15.9-6.2 6.1 2.7 8.86 9.8 6.2 15.88-1.3 2.88-3.3 4.93-6.2 6.2v1.3l2.2 2.18c.64.7.64 1.74 0 2.42l-2.2 2.2v.4l2.2 2.2c.64.64.64 1.73 0 2.37l-2.2 2.2v2c0 .4-.13.82-.42 1.14l-3.15 3.57c-.33.42-.77.6-1.27.6zm-1.45-5.12l1.28 1.1 1.62-1.83v-2.14c0-.46.17-.87.5-1.2l1.48-1.5-1.47-1.5c-.34-.32-.5-.73-.5-1.2v-1.77c0-.5.16-.86.5-1.22l1.47-1.46-1.47-1.5c-.34-.33-.5-.74-.5-1.2v-3.2c0-.77.45-1.4 1.17-1.64 2.78-.87 4.73-2.83 5.62-5.6 1.45-4.54-1.06-9.42-5.62-10.88-4.55-1.42-9.4 1.1-10.87 5.6-1.44 4.58 1.06 9.42 5.62 10.88.72.23 1.18.87 1.18 1.65zm1.45-26.7c-2.68 0-4.87-2.2-4.87-4.85.03-2.7 2.2-4.88 4.88-4.88 2.62 0 4.77 2.1 4.84 4.75.03 2.7-2.1 4.88-4.77 4.88h-.07zm0-6.3c-.8 0-1.45.68-1.45 1.45 0 .83.65 1.46 1.45 1.46.8 0 1.44-.63 1.44-1.46v-.1c0-.76-.65-1.4-1.44-1.4zM1152.63 873.62h-28.7c-.94 0-1.72-.77-1.72-1.7V848.1c0-.5.18-.9.5-1.23.35-.32.74-.5 1.22-.5h28.7c.5 0 .88.18 1.23.53.32.33.48.7.48 1.2v23.83c0 .92-.77 1.7-1.7 1.7zm-27-3.4h25.3v-20.54h-25.3z" stroke="#fff" stroke-opacity="0" fill="#0c7cba"/><path d="M1147.93 848.2h-3.4v-6.5c.12-3.58-2.64-6.6-6.24-6.8-3.6.15-6.42 3.18-6.3 6.8v6.62h-3.4v-6.6c-.12-5.5 4.2-10.06 9.7-10.2 5.46.2 9.75 4.73 9.6 10.2zM1138.28 861.9c-2.63-.16-4.65-2.44-4.5-5.07.16-2.44 2.07-4.35 4.5-4.5 2.64.16 4.65 2.44 4.5 5.07-.15 2.44-2.06 4.35-4.5 4.5zm0-6.15c-.64.07-1.14.56-1.2 1.2-.1.77.45 1.45 1.2 1.53h.06c.73-.02 1.32-.63 1.3-1.37 0-.37-.12-.7-.4-.96-.26-.27-.58-.4-.96-.4z" stroke="#fff" stroke-opacity="0" fill="#0c7cba"/><path d="M1136.58 859.6h3.4v7.2h-3.4v-7.2z" stroke="#fff" stroke-opacity="0" fill="#0c7cba"/><use xlink:href="#b" transform="matrix(1,0,0,1,1066.7,889) translate(7.549999999999997 14.4)"/><use xlink:href="#c" transform="matrix(1,0,0,1,1066.7,889) translate(81.45 14.4)"/><use xlink:href="#d" transform="matrix(1,0,0,1,1066.7,889) translate(48 36)"/><path d="M301 1020h79.97" stroke="#000" stroke-width="2" fill="none"/><path d="M301.03 1021H300v-2h1.03z"/><path d="M396.24 1020l-14.27 4.64v-9.28z" stroke="#000" stroke-width="2"/><path d="M461.17 1020H601.5" stroke="#000" stroke-width="2" fill="none"/><path d="M461.2 1021h-1.02v-2h1.02z"/><path d="M616.76 1020l-14.26 4.64v-9.28z" stroke="#000" stroke-width="2"/><path d="M240 959v-99h140.97" stroke="#000" stroke-width="2" fill="none"/><path d="M241 960h-2v-1.03h2z"/><path d="M396.24 860l-14.27 4.64v-9.28z" stroke="#000" stroke-width="2"/><path d="M464.47 860h77.27v160h59.76" stroke="#000" stroke-width="2" fill="none"/><path d="M464.5 861h-1.02v-2h1.02z"/><path d="M616.76 1020l-14.26 4.64v-9.28z" stroke="#000" stroke-width="2"/><path d="M759.26 880h-54.52c-2.63 0-4.74-2.16-4.74-4.8v-70.4c0-2.64 2.1-4.8 4.74-4.8h54.52c2.63 0 4.74 2.16 4.74 4.8v70.4c0 2.64-2.1 4.8-4.74 4.8zm-54.52-76.56c-.77 0-1.35.56-1.35 1.36v70.4c0 .8.63 1.36 1.34 1.36h54.52c.77 0 1.35-.56 1.35-1.36v-70.4c0-.8-.63-1.36-1.34-1.36z" stroke="#fff" stroke-opacity="0" fill="#c92d39"/><path d="M717.68 851.27c-.44 0-.8-.14-1.1-.4l-3.15-2.7c-.38-.33-.6-.78-.6-1.3v-18.16c-6.1-2.68-8.87-9.8-6.2-15.88 2.68-6.12 9.8-8.86 15.9-6.2 6.1 2.7 8.86 9.8 6.2 15.88-1.3 2.88-3.3 4.93-6.2 6.2v1.3l2.2 2.18c.64.7.64 1.74 0 2.42l-2.2 2.2v.4l2.2 2.2c.64.64.64 1.73 0 2.37l-2.2 2.2v2c0 .4-.13.82-.42 1.14l-3.15 3.57c-.33.42-.77.6-1.27.6zm-1.45-5.12l1.28 1.1 1.62-1.83v-2.14c0-.46.17-.87.5-1.2l1.48-1.5-1.47-1.5c-.34-.32-.5-.73-.5-1.2v-1.77c0-.5.16-.86.5-1.22l1.47-1.46-1.47-1.5c-.34-.33-.5-.74-.5-1.2v-3.2c0-.77.45-1.4 1.17-1.64 2.78-.87 4.73-2.83 5.62-5.6 1.45-4.54-1.06-9.42-5.62-10.88-4.55-1.42-9.4 1.1-10.87 5.6-1.44 4.58 1.06 9.42 5.62 10.88.72.23 1.18.87 1.18 1.65zm1.45-26.7c-2.68 0-4.87-2.2-4.87-4.85.03-2.7 2.2-4.88 4.88-4.88 2.62 0 4.77 2.1 4.84 4.75.03 2.7-2.1 4.88-4.77 4.88h-.07zm0-6.3c-.8 0-1.45.68-1.45 1.45 0 .83.65 1.46 1.45 1.46.8 0 1.44-.63 1.44-1.46v-.1c0-.76-.65-1.4-1.44-1.4zM755.93 873.62h-28.7c-.94 0-1.72-.77-1.72-1.7V848.1c0-.5.18-.9.5-1.23.35-.32.74-.5 1.22-.5h28.7c.5 0 .88.18 1.23.53.32.33.48.7.48 1.2v23.83c0 .92-.77 1.7-1.7 1.7zm-27-3.4h25.3v-20.54h-25.3z" stroke="#fff" stroke-opacity="0" fill="#c92d39"/><path d="M751.23 848.2h-3.4v-6.5c.12-3.58-2.64-6.6-6.24-6.8-3.6.15-6.42 3.18-6.3 6.8v6.62h-3.4v-6.6c-.12-5.5 4.2-10.06 9.7-10.2 5.46.2 9.75 4.73 9.6 10.2zM741.58 861.9c-2.63-.16-4.65-2.44-4.5-5.07.16-2.44 2.07-4.35 4.5-4.5 2.64.16 4.65 2.44 4.5 5.07-.15 2.44-2.06 4.35-4.5 4.5zm0-6.15c-.64.07-1.14.56-1.2 1.2-.1.77.45 1.45 1.2 1.53h.06c.73-.02 1.32-.63 1.3-1.37 0-.37-.12-.7-.4-.96-.26-.27-.58-.4-.96-.4z" stroke="#fff" stroke-opacity="0" fill="#c92d39"/><path d="M739.88 859.6h3.4v7.2h-3.4v-7.2z" stroke="#fff" stroke-opacity="0" fill="#c92d39"/><use xlink:href="#z" transform="matrix(1,0,0,1,670,889) translate(1.5249999999999986 14.4)"/><use xlink:href="#c" transform="matrix(1,0,0,1,670,889) translate(87.475 14.4)"/><use xlink:href="#d" transform="matrix(1,0,0,1,670,889) translate(48 36)"/><path d="M660 979V840h21.5" stroke="#000" stroke-width="2" fill="none"/><path d="M661 980h-2v-1.03h2z"/><path d="M696.76 840l-14.26 4.64v-9.28z" stroke="#000" stroke-width="2"/><path d="M765 840h126.85" stroke="#000" stroke-width="2" fill="none"/><path d="M765.03 841H764v-2h1.03z"/><path d="M907.1 840l-14.25 4.64v-9.28z" stroke="#000" stroke-width="2"/><use xlink:href="#J" transform="matrix(1,0,0,1,793.05,814.4) translate(0 14.4)"/><path d="M1242.3 1060H1185c-.9 0-1.7-.8-1.7-1.68v-76.64c0-.88.8-1.68 1.7-1.68h57.3c.9 0 1.7.8 1.7 1.68v76.64c0 .88-.8 1.68-1.7 1.68zm-55.6-3.44h53.9v-73.12h-53.9z" stroke="#fff" stroke-opacity="0" fill="#c92d39"/><path d="M1202.48 1002.57h-9.54c-.93 0-1.7-.77-1.7-1.7v-9.6c0-.92.77-1.7 1.7-1.7h9.54c.94 0 1.7.78 1.7 1.7v9.6c0 .93-.76 1.7-1.7 1.7zm-7.85-3.4h6.16V993h-6.17zM1202.48 1024.9h-9.54c-.93 0-1.7-.76-1.7-1.7v-9.58c0-.94.77-1.7 1.7-1.7h9.54c.94 0 1.7.76 1.7 1.7v9.58c0 .94-.76 1.7-1.7 1.7zm-7.85-3.4h6.16v-6.18h-6.17zM1202.48 1047.23h-9.54c-.93 0-1.7-.76-1.7-1.7v-9.57c0-.93.77-1.7 1.7-1.7h9.54c.94 0 1.7.77 1.7 1.7v9.57c0 .94-.76 1.7-1.7 1.7zm-7.85-3.4h6.16v-6.17h-6.17zM1207.28 994.37h28.66v3.4h-28.66v-3.4zM1207.28 1016.7h28.66v3.4h-28.66v-3.4zM1207.28 1039.05h28.66v3.4h-28.66v-3.4z" stroke="#fff" stroke-opacity="0" fill="#c92d39"/><use xlink:href="#A" transform="matrix(1,0,0,1,1153.3,1069) translate(20.025 14.4)"/><use xlink:href="#B" transform="matrix(1,0,0,1,1153.3,1069) translate(16.549999999999997 36)"/><use xlink:href="#v" transform="matrix(1,0,0,1,1153.3,1069) translate(69.5 36)"/><path d="M701 1020h463.8" stroke="#000" stroke-width="2" fill="none"/><path d="M701.03 1021H700v-2h1.03z"/><path d="M1180.06 1020l-14.26 4.64v-9.28z" stroke="#000" stroke-width="2"/><path d="M1161.7 840h51.95v121.5" stroke="#000" stroke-width="2" fill="none"/><path d="M1161.73 841h-1.03v-2h1.03z"/><path d="M1213.65 976.76L1209 962.5h9.3z" stroke="#000" stroke-width="2"/><use xlink:href="#J" transform="matrix(1,0,0,1,1221.6499999999996,884.7) translate(0 14.4)"/><path d="M1245 1020h136.5" stroke="#000" stroke-width="2" fill="none"/><path d="M1245.03 1021H1244v-2h1.03z"/><path d="M1396.76 1020l-14.26 4.64v-9.28z" stroke="#000" stroke-width="2"/><path d="M1459 1060h-57.3c-.9 0-1.7-.8-1.7-1.68v-76.64c0-.88.8-1.68 1.7-1.68h57.3c.9 0 1.7.8 1.7 1.68v76.64c0 .88-.8 1.68-1.7 1.68zm-55.6-3.44h53.9v-73.12h-53.9z" stroke="#fff" stroke-opacity="0" fill="#d86613"/><path d="M1419.18 1002.57h-9.54c-.93 0-1.7-.77-1.7-1.7v-9.6c0-.92.77-1.7 1.7-1.7h9.54c.94 0 1.7.78 1.7 1.7v9.6c0 .93-.76 1.7-1.7 1.7zm-7.85-3.4h6.16V993h-6.17zM1419.18 1024.9h-9.54c-.93 0-1.7-.76-1.7-1.7v-9.58c0-.94.77-1.7 1.7-1.7h9.54c.94 0 1.7.76 1.7 1.7v9.58c0 .94-.76 1.7-1.7 1.7zm-7.85-3.4h6.16v-6.18h-6.17zM1419.18 1047.23h-9.54c-.93 0-1.7-.76-1.7-1.7v-9.57c0-.93.77-1.7 1.7-1.7h9.54c.94 0 1.7.77 1.7 1.7v9.57c0 .94-.76 1.7-1.7 1.7zm-7.85-3.4h6.16v-6.17h-6.17zM1423.98 994.37h28.66v3.4h-28.66v-3.4zM1423.98 1016.7h28.66v3.4h-28.66v-3.4zM1423.98 1039.05h28.66v3.4h-28.66v-3.4z" stroke="#fff" stroke-opacity="0" fill="#d86613"/><use xlink:href="#u" transform="matrix(1,0,0,1,1370,1069) translate(16.549999999999997 14.4)"/><use xlink:href="#v" transform="matrix(1,0,0,1,1370,1069) translate(69.5 14.4)"/><path d="M575.66 562.27H511.3V497.9h64.36zm-61.02-3.35h57.67v-57.67h-57.66z" stroke="#fff" stroke-opacity="0" fill="#d86613"/><path d="M520.5 490.1h3.32v9.47h-3.33v-9.48zM530.94 490.1h3.33v9.47h-3.33v-9.48zM541.4 490.1h3.34v9.47h-3.33v-9.48zM551.88 490.1h3.33v9.47h-3.33v-9.48zM562.34 490.1h3.33v9.47h-3.33v-9.48zM520.5 560.6h3.32v9.5h-3.33v-9.5zM530.94 560.6h3.33v9.5h-3.33v-9.5zM541.4 560.6h3.34v9.5h-3.33v-9.5zM551.88 560.6h3.33v9.5h-3.33v-9.5zM562.34 560.6h3.33v9.5h-3.33v-9.5zM574 507.5h9.47v3.34H574v-3.34zM574 517.95h9.47v3.34H574v-3.35zM574 528.42h9.47v3.33H574v-3.33zM574 538.9h9.47v3.32H574v-3.33zM574 549.34h9.47v3.33H574v-3.33zM503.47 507.5h9.5v3.34h-9.5v-3.34zM503.47 517.95h9.5v3.34h-9.5v-3.35zM503.47 528.42h9.5v3.33h-9.5v-3.33zM503.47 538.9h9.5v3.32h-9.5v-3.33zM503.47 549.34h9.5v3.33h-9.5v-3.33z" stroke="#fff" stroke-opacity="0" fill="#d86613"/><g><use xlink:href="#K" transform="matrix(1,0,0,1,473.47499999999997,579.0875) translate(50.525 14.4)"/></g><path d="M692.18 1052.18h-64.36v-64.36h64.36zm-61.02-3.34h57.68v-57.68h-57.68z" stroke="#fff" stroke-opacity="0" fill="#d86613"/><path d="M637.02 980h3.33v9.48h-3.33V980zM647.47 980h3.33v9.48h-3.33V980zM657.93 980h3.34v9.48h-3.34V980zM668.4 980h3.33v9.48h-3.33V980zM678.87 980h3.33v9.48h-3.33V980zM637.02 1050.52h3.33v9.48h-3.33v-9.48zM647.47 1050.52h3.33v9.48h-3.33v-9.48zM657.93 1050.52h3.34v9.48h-3.34v-9.48zM668.4 1050.52h3.33v9.48h-3.33v-9.48zM678.87 1050.52h3.33v9.48h-3.33v-9.48zM690.52 997.42H700v3.33h-9.48v-3.33zM690.52 1007.87H700v3.33h-9.48v-3.33zM690.52 1018.33H700v3.34h-9.48v-3.34zM690.52 1028.8H700v3.33h-9.48v-3.33zM690.52 1039.25H700v3.33h-9.48v-3.33zM620 997.42h9.48v3.33H620v-3.33zM620 1007.87h9.48v3.33H620v-3.33zM620 1018.33h9.48v3.34H620v-3.34zM620 1028.8h9.48v3.33H620v-3.33zM620 1039.25h9.48v3.33H620v-3.33z" stroke="#fff" stroke-opacity="0" fill="#d86613"/><g><use xlink:href="#K" transform="matrix(1,0,0,1,590,1069) translate(50.525 14.4)"/></g><defs><path d="M24 0v-248h195v40H76v63h132v40H76v65h150V0H24" id="L"/><path d="M135-194c87-1 58 113 63 194h-50c-7-57 23-157-34-157-59 0-34 97-39 157H25l-1-190h47c2 12-1 28 3 38 12-26 28-41 61-42" id="M"/><path d="M190-63c-7 42-38 67-86 67-59 0-84-38-90-98-12-110 154-137 174-36l-49 2c-2-19-15-32-35-32-30 0-35 28-38 64-6 74 65 87 74 30" id="N"/><path d="M135-150c-39-12-60 13-60 57V0H25l-1-190h47c2 13-1 29 3 40 6-28 27-53 61-41v41" id="O"/><path d="M123 10C108 53 80 86 19 72V37c35 8 53-11 59-39L3-190h52l48 148c12-52 28-100 44-148h51" id="P"/><path d="M135-194c53 0 70 44 70 98 0 56-19 98-73 100-31 1-45-17-59-34 3 33 2 69 2 105H25l-1-265h48c2 10 0 23 3 31 11-24 29-35 60-35zM114-30c33 0 39-31 40-66 0-38-9-64-40-64-56 0-55 130 0 130" id="Q"/><path d="M115-3C79 11 28 4 28-45v-112H4v-33h27l15-45h31v45h36v33H77v99c-1 23 16 31 38 25v30" id="R"/><path d="M25-224v-37h50v37H25zM25 0v-190h50V0H25" id="S"/><path d="M110-194c64 0 96 36 96 99 0 64-35 99-97 99-61 0-95-36-95-99 0-62 34-99 96-99zm-1 164c35 0 45-28 45-65 0-40-10-65-43-65-34 0-45 26-45 65 0 36 10 65 43 65" id="T"/><g id="a"><use transform="matrix(0.05,0,0,0.05,0,0)" xlink:href="#L"/><use transform="matrix(0.05,0,0,0.05,12,0)" xlink:href="#M"/><use transform="matrix(0.05,0,0,0.05,22.950000000000003,0)" xlink:href="#N"/><use transform="matrix(0.05,0,0,0.05,32.95,0)" xlink:href="#O"/><use transform="matrix(0.05,0,0,0.05,39.95,0)" xlink:href="#P"/><use transform="matrix(0.05,0,0,0.05,49.95,0)" xlink:href="#Q"/><use transform="matrix(0.05,0,0,0.05,60.900000000000006,0)" xlink:href="#R"/><use transform="matrix(0.05,0,0,0.05,66.85000000000001,0)" xlink:href="#S"/><use transform="matrix(0.05,0,0,0.05,71.85000000000001,0)" xlink:href="#T"/><use transform="matrix(0.05,0,0,0.05,82.80000000000001,0)" xlink:href="#M"/></g><path d="M30-248c87 1 191-15 191 75 0 78-77 80-158 76V0H30v-248zm33 125c57 0 124 11 124-50 0-59-68-47-124-48v98" id="U"/><path d="M24 0v-261h32V0H24" id="V"/><path d="M141-36C126-15 110 5 73 4 37 3 15-17 15-53c-1-64 63-63 125-63 3-35-9-54-41-54-24 1-41 7-42 31l-33-3c5-37 33-52 76-52 45 0 72 20 72 64v82c-1 20 7 32 28 27v20c-31 9-61-2-59-35zM48-53c0 20 12 33 32 33 41-3 63-29 60-74-43 2-92-5-92 41" id="W"/><path d="M24-231v-30h32v30H24zM24 0v-190h32V0H24" id="X"/><path d="M117-194c89-4 53 116 60 194h-32v-121c0-31-8-49-39-48C34-167 62-67 57 0H25l-1-190h30c1 10-1 24 2 32 11-22 29-35 61-36" id="Y"/><path d="M59-47c-2 24 18 29 38 22v24C64 9 27 4 27-40v-127H5v-23h24l9-43h21v43h35v23H59v120" id="Z"/><path d="M100-194c63 0 86 42 84 106H49c0 40 14 67 53 68 26 1 43-12 49-29l28 8c-11 28-37 45-77 45C44 4 14-33 15-96c1-61 26-98 85-98zm52 81c6-60-76-77-97-28-3 7-6 17-6 28h103" id="aa"/><path d="M141 0L90-78 38 0H4l68-98-65-92h35l48 74 47-74h35l-64 92 68 98h-35" id="ab"/><g id="b"><use transform="matrix(0.05,0,0,0.05,0,0)" xlink:href="#U"/><use transform="matrix(0.05,0,0,0.05,12,0)" xlink:href="#V"/><use transform="matrix(0.05,0,0,0.05,15.949999999999998,0)" xlink:href="#W"/><use transform="matrix(0.05,0,0,0.05,25.950000000000003,0)" xlink:href="#X"/><use transform="matrix(0.05,0,0,0.05,29.899999999999995,0)" xlink:href="#Y"/><use transform="matrix(0.05,0,0,0.05,39.9,0)" xlink:href="#Z"/><use transform="matrix(0.05,0,0,0.05,44.9,0)" xlink:href="#aa"/><use transform="matrix(0.05,0,0,0.05,54.900000000000006,0)" xlink:href="#ab"/><use transform="matrix(0.05,0,0,0.05,63.900000000000006,0)" xlink:href="#Z"/></g><path d="M85-194c31 0 48 13 60 33l-1-100h32l1 261h-30c-2-10 0-23-3-31C134-8 116 4 85 4 32 4 16-35 15-94c0-66 23-100 70-100zm9 24c-40 0-46 34-46 75 0 40 6 74 45 74 42 0 51-32 51-76 0-42-9-74-50-73" id="ac"/><g id="c"><use transform="matrix(0.05,0,0,0.05,0,0)" xlink:href="#ac"/><use transform="matrix(0.05,0,0,0.05,10,0)" xlink:href="#W"/><use transform="matrix(0.05,0,0,0.05,20,0)" xlink:href="#Z"/><use transform="matrix(0.05,0,0,0.05,25,0)" xlink:href="#W"/></g><path d="M143 0L79-87 56-68V0H24v-261h32v163l83-92h37l-77 82L181 0h-38" id="ad"/><path d="M179-190L93 31C79 59 56 82 12 73V49c39 6 53-20 64-50L1-190h34L92-34l54-156h33" id="ae"/><g id="d"><use transform="matrix(0.05,0,0,0.05,0,0)" xlink:href="#ad"/><use transform="matrix(0.05,0,0,0.05,9,0)" xlink:href="#aa"/><use transform="matrix(0.05,0,0,0.05,19,0)" xlink:href="#ae"/></g><path d="M30-248c118-7 216 8 213 122C240-48 200 0 122 0H30v-248zM63-27c89 8 146-16 146-99s-60-101-146-95v194" id="af"/><path d="M194 0L95-120 63-95V0H30v-248h33v124l119-124h40L117-140 236 0h-42" id="ag"/><g id="e"><use transform="matrix(0.05,0,0,0.05,0,0)" xlink:href="#af"/><use transform="matrix(0.05,0,0,0.05,12.950000000000001,0)" xlink:href="#W"/><use transform="matrix(0.05,0,0,0.05,22.950000000000003,0)" xlink:href="#Z"/><use transform="matrix(0.05,0,0,0.05,27.950000000000003,0)" xlink:href="#W"/><use transform="matrix(0.05,0,0,0.05,37.95,0)" xlink:href="#ag"/><use transform="matrix(0.05,0,0,0.05,49.95,0)" xlink:href="#aa"/><use transform="matrix(0.05,0,0,0.05,59.95,0)" xlink:href="#ae"/></g><path d="M114-163C36-179 61-72 57 0H25l-1-190h30c1 12-1 29 2 39 6-27 23-49 58-41v29" id="ah"/><path d="M100-194c62-1 85 37 85 99 1 63-27 99-86 99S16-35 15-95c0-66 28-99 85-99zM99-20c44 1 53-31 53-75 0-43-8-75-51-75s-53 32-53 75 10 74 51 75" id="ai"/><path d="M108 0H70L1-190h34L89-25l56-165h34" id="aj"/><g id="f"><use transform="matrix(0.05,0,0,0.05,0,0)" xlink:href="#U"/><use transform="matrix(0.05,0,0,0.05,12,0)" xlink:href="#ah"/><use transform="matrix(0.05,0,0,0.05,17.95,0)" xlink:href="#ai"/><use transform="matrix(0.05,0,0,0.05,27.950000000000003,0)" xlink:href="#aj"/><use transform="matrix(0.05,0,0,0.05,36.95,0)" xlink:href="#X"/><use transform="matrix(0.05,0,0,0.05,40.900000000000006,0)" xlink:href="#ac"/><use transform="matrix(0.05,0,0,0.05,50.900000000000006,0)" xlink:href="#aa"/><use transform="matrix(0.05,0,0,0.05,60.900000000000006,0)" xlink:href="#ah"/></g><path d="M87 75C49 33 22-17 22-94c0-76 28-126 65-167h31c-38 41-64 92-64 168S80 34 118 75H87" id="ak"/><path d="M33 0v-38h34V0H33" id="al"/><path d="M177-190C167-65 218 103 67 71c-23-6-38-20-44-43l32-5c15 47 100 32 89-28v-30C133-14 115 1 83 1 29 1 15-40 15-95c0-56 16-97 71-98 29-1 48 16 59 35 1-10 0-23 2-32h30zM94-22c36 0 50-32 50-73 0-42-14-75-50-75-39 0-46 34-46 75s6 73 46 73" id="am"/><g id="h"><use transform="matrix(0.05,0,0,0.05,0,0)" xlink:href="#ak"/><use transform="matrix(0.05,0,0,0.05,5.95,0)" xlink:href="#aa"/><use transform="matrix(0.05,0,0,0.05,15.949999999999998,0)" xlink:href="#al"/><use transform="matrix(0.05,0,0,0.05,20.95,0)" xlink:href="#am"/><use transform="matrix(0.05,0,0,0.05,30.950000000000003,0)" xlink:href="#al"/></g><path d="M205 0l-28-72H64L36 0H1l101-248h38L239 0h-34zm-38-99l-47-123c-12 45-31 82-46 123h93" id="an"/><path d="M266 0h-40l-56-210L115 0H75L2-248h35L96-30l15-64 43-154h32l59 218 59-218h35" id="ao"/><path d="M185-189c-5-48-123-54-124 2 14 75 158 14 163 119 3 78-121 87-175 55-17-10-28-26-33-46l33-7c5 56 141 63 141-1 0-78-155-14-162-118-5-82 145-84 179-34 5 7 8 16 11 25" id="ap"/><g id="i"><use transform="matrix(0.05,0,0,0.05,0,0)" xlink:href="#an"/><use transform="matrix(0.05,0,0,0.05,11.35,0)" xlink:href="#ao"/><use transform="matrix(0.05,0,0,0.05,28.299999999999997,0)" xlink:href="#ap"/></g><path d="M240 0l2-218c-23 76-54 145-80 218h-23L58-218 59 0H30v-248h44l77 211c21-75 51-140 76-211h43V0h-30" id="aq"/><path d="M33-261c38 41 65 92 65 168S71 34 33 75H2C39 34 66-17 66-93S39-220 2-261h31" id="ar"/><g id="j"><use transform="matrix(0.05,0,0,0.05,0,0)" xlink:href="#ag"/><use transform="matrix(0.05,0,0,0.05,12,0)" xlink:href="#aq"/><use transform="matrix(0.05,0,0,0.05,26.950000000000003,0)" xlink:href="#ap"/><use transform="matrix(0.05,0,0,0.05,38.95,0)" xlink:href="#ar"/></g><path d="M137-103V0h-34v-103L8-248h37l75 118 75-118h37" id="as"/><path d="M84 4C-5 8 30-112 23-190h32v120c0 31 7 50 39 49 72-2 45-101 50-169h31l1 190h-30c-1-10 1-25-2-33-11 22-28 36-60 37" id="at"/><g id="k"><use transform="matrix(0.05,0,0,0.05,0,0)" xlink:href="#as"/><use transform="matrix(0.05,0,0,0.05,10.35,0)" xlink:href="#ai"/><use transform="matrix(0.05,0,0,0.05,20.35,0)" xlink:href="#at"/><use transform="matrix(0.05,0,0,0.05,30.35,0)" xlink:href="#ah"/></g><path d="M115-194c53 0 69 39 70 98 0 66-23 100-70 100C84 3 66-7 56-30L54 0H23l1-261h32v101c10-23 28-34 59-34zm-8 174c40 0 45-34 45-75 0-40-5-75-45-74-42 0-51 32-51 76 0 43 10 73 51 73" id="au"/><path d="M135-143c-3-34-86-38-87 0 15 53 115 12 119 90S17 21 10-45l28-5c4 36 97 45 98 0-10-56-113-15-118-90-4-57 82-63 122-42 12 7 21 19 24 35" id="av"/><g id="l"><use transform="matrix(0.05,0,0,0.05,0,0)" xlink:href="#af"/><use transform="matrix(0.05,0,0,0.05,12.950000000000001,0)" xlink:href="#W"/><use transform="matrix(0.05,0,0,0.05,22.950000000000003,0)" xlink:href="#Z"/><use transform="matrix(0.05,0,0,0.05,27.950000000000003,0)" xlink:href="#W"/><use transform="matrix(0.05,0,0,0.05,37.95,0)" xlink:href="#au"/><use transform="matrix(0.05,0,0,0.05,47.95,0)" xlink:href="#W"/><use transform="matrix(0.05,0,0,0.05,57.95,0)" xlink:href="#av"/><use transform="matrix(0.05,0,0,0.05,66.95,0)" xlink:href="#aa"/></g><path d="M101-251c82-7 93 87 43 132L82-64C71-53 59-42 53-27h129V0H18c2-99 128-94 128-182 0-28-16-43-45-43s-46 15-49 41l-32-3c6-41 34-60 81-64" id="aw"/><g id="m"><use transform="matrix(0.05,0,0,0.05,0,0)" xlink:href="#aw"/><use transform="matrix(0.05,0,0,0.05,10,0)" xlink:href="#al"/></g><path d="M212-179c-10-28-35-45-73-45-59 0-87 40-87 99 0 60 29 101 89 101 43 0 62-24 78-52l27 14C228-24 195 4 139 4 59 4 22-46 18-125c-6-104 99-153 187-111 19 9 31 26 39 46" id="ax"/><g id="n"><use transform="matrix(0.05,0,0,0.05,0,0)" xlink:href="#ax"/><use transform="matrix(0.05,0,0,0.05,12.950000000000001,0)" xlink:href="#W"/><use transform="matrix(0.05,0,0,0.05,22.950000000000003,0)" xlink:href="#V"/><use transform="matrix(0.05,0,0,0.05,26.900000000000002,0)" xlink:href="#V"/></g><g id="o"><use transform="matrix(0.05,0,0,0.05,0,0)" xlink:href="#af"/><use transform="matrix(0.05,0,0,0.05,12.950000000000001,0)" xlink:href="#W"/><use transform="matrix(0.05,0,0,0.05,22.950000000000003,0)" xlink:href="#Z"/><use transform="matrix(0.05,0,0,0.05,27.950000000000003,0)" xlink:href="#W"/><use transform="matrix(0.05,0,0,0.05,37.95,0)" xlink:href="#ag"/><use transform="matrix(0.05,0,0,0.05,49.95,0)" xlink:href="#aa"/><use transform="matrix(0.05,0,0,0.05,59.95,0)" xlink:href="#ae"/><use transform="matrix(0.05,0,0,0.05,68.95,0)" xlink:href="#U"/><use transform="matrix(0.05,0,0,0.05,80.95,0)" xlink:href="#ah"/><use transform="matrix(0.05,0,0,0.05,86.9,0)" xlink:href="#ai"/><use transform="matrix(0.05,0,0,0.05,96.9,0)" xlink:href="#aj"/><use transform="matrix(0.05,0,0,0.05,105.9,0)" xlink:href="#X"/><use transform="matrix(0.05,0,0,0.05,109.85000000000001,0)" xlink:href="#ac"/><use transform="matrix(0.05,0,0,0.05,119.85000000000001,0)" xlink:href="#aa"/><use transform="matrix(0.05,0,0,0.05,129.85000000000002,0)" xlink:href="#ah"/></g><path d="M126-127c33 6 58 20 58 59 0 88-139 92-164 29-3-8-5-16-6-25l32-3c6 27 21 44 54 44 32 0 52-15 52-46 0-38-36-46-79-43v-28c39 1 72-4 72-42 0-27-17-43-46-43-28 0-47 15-49 41l-32-3c6-42 35-63 81-64 48-1 79 21 79 65 0 36-21 52-52 59" id="ay"/><g id="p"><use transform="matrix(0.05,0,0,0.05,0,0)" xlink:href="#ay"/><use transform="matrix(0.05,0,0,0.05,10,0)" xlink:href="#al"/></g><g id="q"><use transform="matrix(0.05,0,0,0.05,0,0)" xlink:href="#af"/><use transform="matrix(0.05,0,0,0.05,12.950000000000001,0)" xlink:href="#W"/><use transform="matrix(0.05,0,0,0.05,22.950000000000003,0)" xlink:href="#Z"/><use transform="matrix(0.05,0,0,0.05,27.950000000000003,0)" xlink:href="#W"/><use transform="matrix(0.05,0,0,0.05,37.95,0)" xlink:href="#ag"/><use transform="matrix(0.05,0,0,0.05,49.95,0)" xlink:href="#aa"/><use transform="matrix(0.05,0,0,0.05,59.95,0)" xlink:href="#ae"/><use transform="matrix(0.05,0,0,0.05,68.95,0)" xlink:href="#U"/><use transform="matrix(0.05,0,0,0.05,80.95,0)" xlink:href="#ah"/><use transform="matrix(0.05,0,0,0.05,86.9,0)" xlink:href="#ai"/><use transform="matrix(0.05,0,0,0.05,96.9,0)" xlink:href="#aj"/><use transform="matrix(0.05,0,0,0.05,105.9,0)" xlink:href="#X"/><use transform="matrix(0.05,0,0,0.05,109.85000000000001,0)" xlink:href="#ac"/><use transform="matrix(0.05,0,0,0.05,119.85000000000001,0)" xlink:href="#aa"/><use transform="matrix(0.05,0,0,0.05,129.85000000000002,0)" xlink:href="#ah"/></g><path d="M143 4C61 4 22-44 18-125c-5-107 100-154 193-111 17 8 29 25 37 43l-32 9c-13-25-37-40-76-40-61 0-88 39-88 99 0 61 29 100 91 101 35 0 62-11 79-27v-45h-74v-28h105v86C228-13 192 4 143 4" id="az"/><g id="r"><use transform="matrix(0.05,0,0,0.05,0,0)" xlink:href="#az"/><use transform="matrix(0.05,0,0,0.05,14,0)" xlink:href="#aa"/><use transform="matrix(0.05,0,0,0.05,24,0)" xlink:href="#Y"/><use transform="matrix(0.05,0,0,0.05,34,0)" xlink:href="#aa"/><use transform="matrix(0.05,0,0,0.05,44,0)" xlink:href="#ah"/><use transform="matrix(0.05,0,0,0.05,49.95,0)" xlink:href="#W"/><use transform="matrix(0.05,0,0,0.05,59.95,0)" xlink:href="#Z"/><use transform="matrix(0.05,0,0,0.05,64.95,0)" xlink:href="#aa"/><use transform="matrix(0.05,0,0,0.05,74.95,0)" xlink:href="#av"/></g><use transform="matrix(0.05,0,0,0.05,0,0)" xlink:href="#W" id="s"/><g id="t"><use transform="matrix(0.05,0,0,0.05,0,0)" xlink:href="#ag"/><use transform="matrix(0.05,0,0,0.05,12,0)" xlink:href="#aa"/><use transform="matrix(0.05,0,0,0.05,22,0)" xlink:href="#ae"/></g><path d="M153-248C145-148 188 4 80 4 36 3 13-21 6-62l32-5c4 25 16 42 43 43 27 0 39-20 39-49v-147H72v-28h81" id="aA"/><path d="M140-251c81 0 123 46 123 126C263-46 219 4 140 4 59 4 17-45 17-125s42-126 123-126zm0 227c63 0 89-41 89-101s-29-99-89-99c-61 0-89 39-89 99S79-25 140-24" id="aB"/><path d="M190 0L58-211 59 0H30v-248h39L202-35l-2-213h31V0h-41" id="aC"/><g id="u"><use transform="matrix(0.05,0,0,0.05,0,0)" xlink:href="#aA"/><use transform="matrix(0.05,0,0,0.05,9,0)" xlink:href="#ap"/><use transform="matrix(0.05,0,0,0.05,21,0)" xlink:href="#aB"/><use transform="matrix(0.05,0,0,0.05,35,0)" xlink:href="#aC"/></g><path d="M33 0v-248h34V0H33" id="aD"/><path d="M210-169c-67 3-38 105-44 169h-31v-121c0-29-5-50-35-48C34-165 62-65 56 0H25l-1-190h30c1 10-1 24 2 32 10-44 99-50 107 0 11-21 27-35 58-36 85-2 47 119 55 194h-31v-121c0-29-5-49-35-48" id="aE"/><g id="v"><use transform="matrix(0.05,0,0,0.05,0,0)" xlink:href="#aD"/><use transform="matrix(0.05,0,0,0.05,5,0)" xlink:href="#Z"/><use transform="matrix(0.05,0,0,0.05,10,0)" xlink:href="#aa"/><use transform="matrix(0.05,0,0,0.05,20,0)" xlink:href="#aE"/></g><path d="M27 0v-27h64v-190l-56 39v-29l58-41h29v221h61V0H27" id="aF"/><g id="w"><use transform="matrix(0.05,0,0,0.05,0,0)" xlink:href="#aF"/><use transform="matrix(0.05,0,0,0.05,10,0)" xlink:href="#al"/></g><path d="M233-177c-1 41-23 64-60 70L243 0h-38l-65-103H63V0H30v-248c88 3 205-21 203 71zM63-129c60-2 137 13 137-47 0-61-80-42-137-45v92" id="aG"/><path d="M96-169c-40 0-48 33-48 73s9 75 48 75c24 0 41-14 43-38l32 2c-6 37-31 61-74 61-59 0-76-41-82-99-10-93 101-131 147-64 4 7 5 14 7 22l-32 3c-4-21-16-35-41-35" id="aH"/><g id="x"><use transform="matrix(0.05,0,0,0.05,0,0)" xlink:href="#aG"/><use transform="matrix(0.05,0,0,0.05,12.950000000000001,0)" xlink:href="#aa"/><use transform="matrix(0.05,0,0,0.05,22.950000000000003,0)" xlink:href="#aH"/><use transform="matrix(0.05,0,0,0.05,31.950000000000003,0)" xlink:href="#X"/><use transform="matrix(0.05,0,0,0.05,35.900000000000006,0)" xlink:href="#aa"/><use transform="matrix(0.05,0,0,0.05,45.900000000000006,0)" xlink:href="#aj"/><use transform="matrix(0.05,0,0,0.05,54.900000000000006,0)" xlink:href="#aa"/></g><g id="y"><use transform="matrix(0.05,0,0,0.05,0,0)" xlink:href="#aA"/><use transform="matrix(0.05,0,0,0.05,9,0)" xlink:href="#ap"/><use transform="matrix(0.05,0,0,0.05,21,0)" xlink:href="#aB"/><use transform="matrix(0.05,0,0,0.05,35,0)" xlink:href="#aC"/></g><path d="M30 0v-248h187v28H63v79h144v27H63v87h162V0H30" id="aI"/><path d="M115-194c55 1 70 41 70 98S169 2 115 4C84 4 66-9 55-30l1 105H24l-1-265h31l2 30c10-21 28-34 59-34zm-8 174c40 0 45-34 45-75s-6-73-45-74c-42 0-51 32-51 76 0 43 10 73 51 73" id="aJ"/><g id="z"><use transform="matrix(0.05,0,0,0.05,0,0)" xlink:href="#aI"/><use transform="matrix(0.05,0,0,0.05,12,0)" xlink:href="#Y"/><use transform="matrix(0.05,0,0,0.05,22,0)" xlink:href="#aH"/><use transform="matrix(0.05,0,0,0.05,31,0)" xlink:href="#ah"/><use transform="matrix(0.05,0,0,0.05,36.95,0)" xlink:href="#ae"/><use transform="matrix(0.05,0,0,0.05,45.95,0)" xlink:href="#aJ"/><use transform="matrix(0.05,0,0,0.05,55.95,0)" xlink:href="#Z"/><use transform="matrix(0.05,0,0,0.05,60.95,0)" xlink:href="#aa"/><use transform="matrix(0.05,0,0,0.05,70.95,0)" xlink:href="#ac"/></g><g id="A"><use transform="matrix(0.05,0,0,0.05,0,0)" xlink:href="#aI"/><use transform="matrix(0.05,0,0,0.05,12,0)" xlink:href="#Y"/><use transform="matrix(0.05,0,0,0.05,22,0)" xlink:href="#aH"/><use transform="matrix(0.05,0,0,0.05,31,0)" xlink:href="#ah"/><use transform="matrix(0.05,0,0,0.05,36.95,0)" xlink:href="#ae"/><use transform="matrix(0.05,0,0,0.05,45.95,0)" xlink:href="#aJ"/><use transform="matrix(0.05,0,0,0.05,55.95,0)" xlink:href="#Z"/><use transform="matrix(0.05,0,0,0.05,60.95,0)" xlink:href="#aa"/><use transform="matrix(0.05,0,0,0.05,70.95,0)" xlink:href="#ac"/></g><g id="B"><use transform="matrix(0.05,0,0,0.05,0,0)" xlink:href="#aA"/><use transform="matrix(0.05,0,0,0.05,9,0)" xlink:href="#ap"/><use transform="matrix(0.05,0,0,0.05,21,0)" xlink:href="#aB"/><use transform="matrix(0.05,0,0,0.05,35,0)" xlink:href="#aC"/></g><path d="M155-56V0h-30v-56H8v-25l114-167h33v167h35v25h-35zm-30-156c-27 46-58 90-88 131h88v-131" id="aK"/><g id="C"><use transform="matrix(0.05,0,0,0.05,0,0)" xlink:href="#aK"/><use transform="matrix(0.05,0,0,0.05,10,0)" xlink:href="#al"/></g><g id="D"><use transform="matrix(0.05,0,0,0.05,0,0)" xlink:href="#aI"/><use transform="matrix(0.05,0,0,0.05,12,0)" xlink:href="#Y"/><use transform="matrix(0.05,0,0,0.05,22,0)" xlink:href="#aH"/><use transform="matrix(0.05,0,0,0.05,31,0)" xlink:href="#ah"/><use transform="matrix(0.05,0,0,0.05,36.95,0)" xlink:href="#ae"/><use transform="matrix(0.05,0,0,0.05,45.95,0)" xlink:href="#aJ"/><use transform="matrix(0.05,0,0,0.05,55.95,0)" xlink:href="#Z"/></g><path d="M54-142c48-35 137-8 131 61C196 18 31 33 14-55l32-4c7 23 22 37 52 37 35-1 51-22 54-58 4-55-73-65-99-34H22l8-134h141v27H59" id="aL"/><g id="E"><use transform="matrix(0.05,0,0,0.05,0,0)" xlink:href="#aL"/><use transform="matrix(0.05,0,0,0.05,10,0)" xlink:href="#al"/></g><g id="F"><use transform="matrix(0.05,0,0,0.05,0,0)" xlink:href="#U"/><use transform="matrix(0.05,0,0,0.05,12,0)" xlink:href="#aa"/><use transform="matrix(0.05,0,0,0.05,22,0)" xlink:href="#ah"/><use transform="matrix(0.05,0,0,0.05,27.950000000000003,0)" xlink:href="#av"/><use transform="matrix(0.05,0,0,0.05,36.95,0)" xlink:href="#X"/><use transform="matrix(0.05,0,0,0.05,40.900000000000006,0)" xlink:href="#av"/><use transform="matrix(0.05,0,0,0.05,49.900000000000006,0)" xlink:href="#Z"/></g><path d="M24-248c120-7 223 5 221 122C244-46 201 0 124 0H24v-248zM76-40c74 7 117-18 117-86 0-67-45-88-117-82v168" id="aM"/><path d="M185-48c-13 30-37 53-82 52C43 2 14-33 14-96s30-98 90-98c62 0 83 45 84 108H66c0 31 8 55 39 56 18 0 30-7 34-22zm-45-69c5-46-57-63-70-21-2 6-4 13-4 21h74" id="aN"/><g id="G"><use transform="matrix(0.05,0,0,0.05,0,0)" xlink:href="#aM"/><use transform="matrix(0.05,0,0,0.05,12.950000000000001,0)" xlink:href="#aN"/><use transform="matrix(0.05,0,0,0.05,22.950000000000003,0)" xlink:href="#N"/><use transform="matrix(0.05,0,0,0.05,32.95,0)" xlink:href="#O"/><use transform="matrix(0.05,0,0,0.05,39.95,0)" xlink:href="#P"/><use transform="matrix(0.05,0,0,0.05,49.95,0)" xlink:href="#Q"/><use transform="matrix(0.05,0,0,0.05,60.900000000000006,0)" xlink:href="#R"/><use transform="matrix(0.05,0,0,0.05,66.85000000000001,0)" xlink:href="#S"/><use transform="matrix(0.05,0,0,0.05,71.85000000000001,0)" xlink:href="#T"/><use transform="matrix(0.05,0,0,0.05,82.80000000000001,0)" xlink:href="#M"/></g><g id="H"><use transform="matrix(0.05,0,0,0.05,0,0)" xlink:href="#af"/><use transform="matrix(0.05,0,0,0.05,12.950000000000001,0)" xlink:href="#W"/><use transform="matrix(0.05,0,0,0.05,22.950000000000003,0)" xlink:href="#Z"/><use transform="matrix(0.05,0,0,0.05,27.950000000000003,0)" xlink:href="#W"/><use transform="matrix(0.05,0,0,0.05,37.95,0)" xlink:href="#ag"/><use transform="matrix(0.05,0,0,0.05,49.95,0)" xlink:href="#aa"/><use transform="matrix(0.05,0,0,0.05,59.95,0)" xlink:href="#ae"/><use transform="matrix(0.05,0,0,0.05,68.95,0)" xlink:href="#U"/><use transform="matrix(0.05,0,0,0.05,80.95,0)" xlink:href="#ah"/><use transform="matrix(0.05,0,0,0.05,86.9,0)" xlink:href="#ai"/><use transform="matrix(0.05,0,0,0.05,96.9,0)" xlink:href="#aj"/><use transform="matrix(0.05,0,0,0.05,105.9,0)" xlink:href="#X"/><use transform="matrix(0.05,0,0,0.05,109.85000000000001,0)" xlink:href="#ac"/><use transform="matrix(0.05,0,0,0.05,119.85000000000001,0)" xlink:href="#aa"/><use transform="matrix(0.05,0,0,0.05,129.85000000000002,0)" xlink:href="#ah"/></g><g id="I"><use transform="matrix(0.05,0,0,0.05,0,0)" xlink:href="#ak"/><use transform="matrix(0.05,0,0,0.05,5.95,0)" xlink:href="#aa"/><use transform="matrix(0.05,0,0,0.05,15.949999999999998,0)" xlink:href="#al"/><use transform="matrix(0.05,0,0,0.05,20.95,0)" xlink:href="#am"/><use transform="matrix(0.05,0,0,0.05,30.950000000000003,0)" xlink:href="#al"/></g><g id="J"><use transform="matrix(0.05,0,0,0.05,0,0)" xlink:href="#af"/><use transform="matrix(0.05,0,0,0.05,12.950000000000001,0)" xlink:href="#aa"/><use transform="matrix(0.05,0,0,0.05,22.950000000000003,0)" xlink:href="#aH"/><use transform="matrix(0.05,0,0,0.05,31.950000000000003,0)" xlink:href="#ah"/><use transform="matrix(0.05,0,0,0.05,37.900000000000006,0)" xlink:href="#ae"/><use transform="matrix(0.05,0,0,0.05,46.900000000000006,0)" xlink:href="#aJ"/><use transform="matrix(0.05,0,0,0.05,56.900000000000006,0)" xlink:href="#Z"/></g><path d="M209 0H11v-25l151-195H24v-28h176v25L50-27h159V0" id="aO"/><g id="K"><use transform="matrix(0.05,0,0,0.05,0,0)" xlink:href="#aA"/><use transform="matrix(0.05,0,0,0.05,9,0)" xlink:href="#W"/><use transform="matrix(0.05,0,0,0.05,19,0)" xlink:href="#ae"/><use transform="matrix(0.05,0,0,0.05,28,0)" xlink:href="#aO"/></g></defs></g></svg>